<svg xmlns="http://www.w3.org/2000/svg" fill="none" viewBox="0 0 180 180"><rect width="180" height="180" fill="#000" rx="32"/><path fill="#0f8" d="M45 68c0-12.4 10.1-22.5 22.5-22.5s22.5 10.1 22.5 22.5v11.25h11.25c6.2 0 11.25 5.05 11.25 11.25v45c0 6.2-5.05 11.25-11.25 11.25H56.25c-6.2 0-11.25-5.05-11.25-11.25v-45c0-6.2 5.05-11.25 11.25-11.25H67.5V68zm11.25 11.25V68c0-6.2 5.05-11.25 11.25-11.25s11.25 5.05 11.25 11.25v11.25h-22.5z"/><circle cx="135" cy="45" r="11.25" fill="#f44"/><rect width="45" height="11.25" x="123.75" y="135" fill="#0f8" rx="5.625"/><rect width="33.75" height="11.25" x="123.75" y="151.875" fill="#0f8" rx="5.625"/></svg>